<svg width="135" height="23" viewBox="0 0 135 23" fill="none" xmlns="http://www.w3.org/2000/svg">
<path d="M122.446 22V4.96H115.726V1H134.026V4.96H127.306V22H122.446Z" fill="#7C71C9"/>
<path d="M108.252 22V1H113.112V22H108.252Z" fill="#7C71C9"/>
<path d="M93.5916 10.45H103.672V14.35H93.5916V10.45ZM93.9516 22H89.0916V1H104.962V4.9H93.9516V22Z" fill="#7C71C9"/>
<path d="M66.4007 22V4.96H59.6807V1H77.9807V4.96H71.2607V22H66.4007Z" fill="#7C71C9"/>
<path d="M50.1127 22.3599C48.4327 22.3599 46.8227 22.1399 45.2827 21.6999C43.7427 21.2399 42.5027 20.6499 41.5627 19.9299L43.2127 16.2699C44.1127 16.9099 45.1727 17.4399 46.3927 17.8599C47.6327 18.2599 48.8827 18.4599 50.1427 18.4599C51.1027 18.4599 51.8727 18.3699 52.4527 18.1899C53.0527 17.9899 53.4927 17.7199 53.7727 17.3799C54.0527 17.0399 54.1927 16.6499 54.1927 16.2099C54.1927 15.6499 53.9727 15.2099 53.5327 14.8899C53.0927 14.5499 52.5127 14.2799 51.7927 14.0799C51.0727 13.8599 50.2727 13.6599 49.3927 13.4799C48.5327 13.2799 47.6627 13.0399 46.7827 12.7599C45.9227 12.4799 45.1327 12.1199 44.4127 11.6799C43.6927 11.2399 43.1027 10.6599 42.6427 9.93989C42.2027 9.21989 41.9827 8.29989 41.9827 7.17989C41.9827 5.97989 42.3027 4.88989 42.9427 3.90989C43.6027 2.90989 44.5827 2.11989 45.8827 1.53989C47.2027 0.939893 48.8527 0.639893 50.8327 0.639893C52.1527 0.639893 53.4527 0.799893 54.7327 1.11989C56.0127 1.41989 57.1427 1.87989 58.1227 2.49989L56.6227 6.18989C55.6427 5.62989 54.6627 5.21989 53.6827 4.95989C52.7027 4.67989 51.7427 4.53989 50.8027 4.53989C49.8627 4.53989 49.0927 4.64989 48.4927 4.86989C47.8927 5.08989 47.4627 5.37989 47.2027 5.73989C46.9427 6.07989 46.8127 6.47989 46.8127 6.93989C46.8127 7.47989 47.0327 7.91989 47.4727 8.25989C47.9127 8.57989 48.4927 8.83989 49.2127 9.03989C49.9327 9.23989 50.7227 9.43989 51.5827 9.63989C52.4627 9.83989 53.3327 10.0699 54.1927 10.3299C55.0727 10.5899 55.8727 10.9399 56.5927 11.3799C57.3127 11.8199 57.8927 12.3999 58.3327 13.1199C58.7927 13.8399 59.0227 14.7499 59.0227 15.8499C59.0227 17.0299 58.6927 18.1099 58.0327 19.0899C57.3727 20.0699 56.3827 20.8599 55.0627 21.4599C53.7627 22.0599 52.1127 22.3599 50.1127 22.3599Z" fill="#7C71C9"/>
<path d="M28.9001 22.36C25.9201 22.36 23.5901 21.53 21.9101 19.87C20.2301 18.21 19.3901 15.84 19.3901 12.76V1H24.2501V12.58C24.2501 14.58 24.6601 16.02 25.4801 16.9C26.3001 17.78 27.4501 18.22 28.9301 18.22C30.4101 18.22 31.5601 17.78 32.3801 16.9C33.2001 16.02 33.6101 14.58 33.6101 12.58V1H38.4101V12.76C38.4101 15.84 37.5701 18.21 35.8901 19.87C34.2101 21.53 31.8801 22.36 28.9001 22.36Z" fill="#7C71C9"/>
<path d="M7.20963 22.36C5.78963 22.36 4.47963 22.1 3.27963 21.58C2.09963 21.04 1.12963 20.28 0.369629 19.3L3.06963 16.06C3.64963 16.82 4.25963 17.4 4.89963 17.8C5.53963 18.18 6.22963 18.37 6.96963 18.37C8.94963 18.37 9.93963 17.21 9.93963 14.89V4.9H2.55963V1H14.7696V14.62C14.7696 17.22 14.1296 19.16 12.8496 20.44C11.5696 21.72 9.68963 22.36 7.20963 22.36Z" fill="#7C71C9"/>
</svg>
